# xmcd CD database file
#
# Track frame offsets:
#	150
#	11442
#	21500
#	30882
#	42660
#	52640
#	62907
#	73167
#	82997
#	94352
#	102605
#	113247
#	124212
#	136017
#	147655
#	161382
#	172275
#	185020
#	196585
#	206915
#	218830
#	231407
#	242695
#	254690
#
# Disc length: 3535 seconds
#
# Revision: 0
# Processed by: cddbd v1.5.1PL0 Copyright (c) Steve Scherf et al.
# Submitted via: CDex 1.51
#
DISCID=680dcd18
DTITLE=Les Paul - How High the Moon #5 Lover's Luau/Bouquet of Roses:
DYEAR=2005
DGENRE=Jazz
TTITLE0=Blue Hawaii
TTITLE1=Drifting And Dreaming
TTITLE2=King's Serenade
TTITLE3=Song Of The Islands
TTITLE4=Sweet Leilani
TTITLE5=To You Sweetheart, Aloha
TTITLE6=On The Beach At Waikiki
TTITLE7=Golden Sands
TTITLE8=My Little Grass Shack (In Kealakekua, Hawaii)
TTITLE9=Hawaiian Charms
TTITLE10=Pacific Breeze
TTITLE11=Farewell To Thee
TTITLE12=I Love You So Much It Hurts Me
TTITLE13=You Win Again
TTITLE14=Four Walls
TTITLE15=I Hang My Head And Cry
TTITLE16=Someday (You'll Want Me To Want You)
TTITLE17=I'll Never Be Free
TTITLE18=I Gotta Have My Baby Back
TTITLE19=I'm Thinking Tonight Of My Blue Eyes
TTITLE20=End Of The World
TTITLE21=You're Free To Go
TTITLE22=Bouquet Of Roses
TTITLE23=She'll Have To Go
EXTD=YEAR: 2005
EXTT0=
EXTT1=
EXTT2=
EXTT3=
EXTT4=
EXTT5=
EXTT6=
EXTT7=
EXTT8=
EXTT9=
EXTT10=
EXTT11=
EXTT12=
EXTT13=
EXTT14=
EXTT15=
EXTT16=
EXTT17=
EXTT18=
EXTT19=
EXTT20=
EXTT21=
EXTT22=
EXTT23=
PLAYORDER=
